<mxfile host="app.diagrams.net" modified="2022-05-06T02:05:50.461Z" agent="5.0 (Windows NT 10.0; WOW64) AppleWebKit/537.36 (KHTML, like Gecko) Chrome/86.0.4240.198 Safari/537.36" etag="70edkDk5bCjXtcIYJtQ3" version="17.4.4" type="github">
  <diagram id="vcOXpLogJzYYLjK_w5W-" name="第 1 页">
    <mxGraphModel dx="884" dy="435" grid="1" gridSize="10" guides="1" tooltips="1" connect="1" arrows="1" fold="1" page="1" pageScale="1" pageWidth="827" pageHeight="1169" math="0" shadow="0">
      <root>
        <mxCell id="0" />
        <mxCell id="1" parent="0" />
        <mxCell id="9Hl5kyrXBKMWCUE3tDjN-1" value="web开发" style="points=[[0,0],[0.25,0],[0.5,0],[0.75,0],[1,0],[1,0.25],[1,0.5],[1,0.75],[1,1],[0.75,1],[0.5,1],[0.25,1],[0,1],[0,0.75],[0,0.5],[0,0.25]];outlineConnect=0;gradientColor=none;html=1;whiteSpace=wrap;fontSize=12;fontStyle=0;container=1;pointerEvents=0;collapsible=0;recursiveResize=0;shape=mxgraph.aws4.group;grIcon=mxgraph.aws4.group_corporate_data_center;strokeColor=#5A6C86;fillColor=none;verticalAlign=top;align=left;spacingLeft=30;fontColor=#5A6C86;dashed=0;" vertex="1" parent="1">
          <mxGeometry x="140" y="250" width="320" height="180" as="geometry" />
        </mxCell>
        <mxCell id="9Hl5kyrXBKMWCUE3tDjN-7" value="前端" style="points=[[0,0],[0.25,0],[0.5,0],[0.75,0],[1,0],[1,0.25],[1,0.5],[1,0.75],[1,1],[0.75,1],[0.5,1],[0.25,1],[0,1],[0,0.75],[0,0.5],[0,0.25]];outlineConnect=0;gradientColor=none;html=1;whiteSpace=wrap;fontSize=12;fontStyle=0;container=1;pointerEvents=0;collapsible=0;recursiveResize=0;shape=mxgraph.aws4.group;grIcon=mxgraph.aws4.group_security_group;grStroke=0;strokeColor=#147EBA;fillColor=#E6F2F8;verticalAlign=top;align=left;spacingLeft=30;fontColor=#147EBA;dashed=0;" vertex="1" parent="9Hl5kyrXBKMWCUE3tDjN-1">
          <mxGeometry x="20" y="30" width="130" height="130" as="geometry" />
        </mxCell>
        <mxCell id="9Hl5kyrXBKMWCUE3tDjN-9" value="vue" style="rounded=1;whiteSpace=wrap;html=1;" vertex="1" parent="9Hl5kyrXBKMWCUE3tDjN-7">
          <mxGeometry x="17.5" y="30" width="95" height="40" as="geometry" />
        </mxCell>
        <mxCell id="9Hl5kyrXBKMWCUE3tDjN-10" value="nodejs" style="rounded=1;whiteSpace=wrap;html=1;" vertex="1" parent="9Hl5kyrXBKMWCUE3tDjN-7">
          <mxGeometry x="17.5" y="80" width="95" height="40" as="geometry" />
        </mxCell>
        <mxCell id="9Hl5kyrXBKMWCUE3tDjN-8" value="服务器" style="points=[[0,0],[0.25,0],[0.5,0],[0.75,0],[1,0],[1,0.25],[1,0.5],[1,0.75],[1,1],[0.75,1],[0.5,1],[0.25,1],[0,1],[0,0.75],[0,0.5],[0,0.25]];outlineConnect=0;gradientColor=none;html=1;whiteSpace=wrap;fontSize=12;fontStyle=0;container=1;pointerEvents=0;collapsible=0;recursiveResize=0;shape=mxgraph.aws4.group;grIcon=mxgraph.aws4.group_security_group;grStroke=0;strokeColor=#147EBA;fillColor=#E6F2F8;verticalAlign=top;align=left;spacingLeft=30;fontColor=#147EBA;dashed=0;" vertex="1" parent="9Hl5kyrXBKMWCUE3tDjN-1">
          <mxGeometry x="170" y="30" width="130" height="130" as="geometry" />
        </mxCell>
        <mxCell id="9Hl5kyrXBKMWCUE3tDjN-11" value="spring" style="rounded=1;whiteSpace=wrap;html=1;" vertex="1" parent="9Hl5kyrXBKMWCUE3tDjN-8">
          <mxGeometry x="22.5" y="30" width="95" height="40" as="geometry" />
        </mxCell>
        <mxCell id="9Hl5kyrXBKMWCUE3tDjN-12" value="mysql" style="rounded=1;whiteSpace=wrap;html=1;" vertex="1" parent="9Hl5kyrXBKMWCUE3tDjN-8">
          <mxGeometry x="22.5" y="80" width="95" height="40" as="geometry" />
        </mxCell>
        <mxCell id="9Hl5kyrXBKMWCUE3tDjN-2" value="图像识别" style="points=[[0,0],[0.25,0],[0.5,0],[0.75,0],[1,0],[1,0.25],[1,0.5],[1,0.75],[1,1],[0.75,1],[0.5,1],[0.25,1],[0,1],[0,0.75],[0,0.5],[0,0.25]];outlineConnect=0;gradientColor=none;html=1;whiteSpace=wrap;fontSize=12;fontStyle=0;container=1;pointerEvents=0;collapsible=0;recursiveResize=0;shape=mxgraph.aws4.group;grIcon=mxgraph.aws4.group_ec2_instance_contents;strokeColor=#D86613;fillColor=none;verticalAlign=top;align=left;spacingLeft=30;fontColor=#D86613;dashed=0;" vertex="1" parent="1">
          <mxGeometry x="140" y="50" width="320" height="170" as="geometry" />
        </mxCell>
        <mxCell id="9Hl5kyrXBKMWCUE3tDjN-3" value="YOLOv3" style="rounded=1;whiteSpace=wrap;html=1;" vertex="1" parent="9Hl5kyrXBKMWCUE3tDjN-2">
          <mxGeometry x="20" y="30" width="120" height="60" as="geometry" />
        </mxCell>
        <mxCell id="9Hl5kyrXBKMWCUE3tDjN-5" value="&#xa;&#xa;&lt;span style=&quot;color: rgb(0, 0, 0); font-family: helvetica; font-size: 12px; font-style: normal; font-weight: 400; letter-spacing: normal; text-align: center; text-indent: 0px; text-transform: none; word-spacing: 0px; background-color: rgb(248, 249, 250); display: inline; float: none;&quot;&gt;pytorch&lt;/span&gt;&#xa;&#xa;" style="rounded=1;whiteSpace=wrap;html=1;" vertex="1" parent="9Hl5kyrXBKMWCUE3tDjN-2">
          <mxGeometry x="180" y="30" width="120" height="60" as="geometry" />
        </mxCell>
        <mxCell id="9Hl5kyrXBKMWCUE3tDjN-6" value="百度大脑AI开放平台" style="rounded=1;whiteSpace=wrap;html=1;" vertex="1" parent="9Hl5kyrXBKMWCUE3tDjN-2">
          <mxGeometry x="80" y="100" width="160" height="60" as="geometry" />
        </mxCell>
      </root>
    </mxGraphModel>
  </diagram>
</mxfile>
